<?xml version="1.0" standalone="no"?>
<!DOCTYPE svg PUBLIC "-//W3C//DTD SVG 20010904//EN"
 "http://www.w3.org/TR/2001/REC-SVG-20010904/DTD/svg10.dtd">
<svg version="1.0" xmlns="http://www.w3.org/2000/svg"
 width="1200.000000pt" height="1200.000000pt" viewBox="0 0 1200.000000 1200.000000"
 preserveAspectRatio="xMidYMid meet">
<metadata>
Created by potrace 1.14, written by Peter Selinger 2001-2017
</metadata>
<g transform="translate(0.000000,1200.000000) scale(0.100000,-0.100000)"
fill="#000000" stroke="none">
<path d="M0 6000 l0 -6000 6000 0 6000 0 0 6000 0 6000 -6000 0 -6000 0 0
-6000z m8123 3392 l237 -237 0 -1900 0 -1900 -237 -237 -238 -238 -1900 0
-1900 0 -235 235 -234 234 -4 1898 -3 1897 243 243 243 243 1895 0 1895 0 238
-238z m-202 -5191 c62 -62 19 -161 -71 -161 -88 0 -134 103 -74 164 39 38 105
37 145 -3z m-3635 -76 c60 -18 127 -72 157 -129 31 -60 31 -173 -2 -239 -47
-96 -140 -137 -308 -137 l-103 0 0 -190 0 -190 -85 0 -85 0 0 450 0 450 188 0
c137 0 202 -4 238 -15z m918 -234 c97 -43 157 -144 164 -278 l5 -83 -222 0
-221 0 0 -29 c0 -15 10 -43 23 -61 36 -54 70 -73 137 -78 72 -5 96 0 142 32
l36 24 42 -43 41 -42 -41 -36 c-56 -48 -117 -67 -211 -67 -183 0 -304 101
-328 275 -29 199 73 369 242 405 56 12 141 3 191 -19z m781 15 c18 -8 41 -26
50 -40 l17 -25 24 28 c49 59 161 63 211 9 37 -40 43 -91 43 -371 l0 -268 -72
3 -72 3 -1 264 c-1 246 -3 264 -20 277 -16 12 -22 12 -39 0 -46 -29 -51 -57
-54 -308 l-4 -238 -63 0 -64 0 -3 265 c-3 229 -5 267 -19 281 -22 22 -55 10
-74 -26 -12 -23 -15 -77 -15 -275 l0 -245 -75 0 -75 0 0 330 0 330 70 0 c65 0
70 -1 70 -22 l0 -21 23 21 c44 41 88 50 142 28z m1076 -2 c78 -23 141 -90 168
-179 25 -82 28 -218 6 -292 -38 -129 -130 -203 -251 -203 -66 0 -124 18 -156
47 -17 15 -18 10 -18 -130 l0 -147 -85 0 -85 0 0 450 0 450 80 0 80 0 0 -42 0
-43 23 26 c59 71 140 92 238 63z m879 -269 l0 -265 75 0 75 0 0 -65 0 -65
-240 0 -240 0 0 65 0 65 80 0 80 0 0 200 0 200 -75 0 -75 0 0 65 0 65 160 0
160 0 0 -265z"/>
<path d="M4570 7250 l0 -1420 1420 0 1420 0 0 1420 0 1420 -1420 0 -1420 0 0
-1420z"/>
<path d="M4030 3880 l0 -120 90 0 c104 0 141 14 166 62 21 40 13 102 -17 134
-29 31 -77 44 -166 44 l-73 0 0 -120z"/>
<path d="M5032 3780 c-18 -4 -42 -16 -54 -26 -20 -18 -48 -72 -48 -94 0 -6 50
-10 140 -10 155 0 153 -1 126 65 -24 55 -91 82 -164 65z"/>
<path d="M6860 3752 c-37 -37 -50 -88 -50 -192 1 -137 40 -200 128 -200 59 0
98 23 124 73 33 62 33 213 1 274 -31 57 -57 73 -121 73 -45 0 -58 -4 -82 -28z"/>
</g>
</svg>
